<svg xmlns="http://www.w3.org/2000/svg" xmlns:xlink="http://www.w3.org/1999/xlink" width="500" zoomAndPan="magnify" viewBox="0 0 375 374.999991" height="500" preserveAspectRatio="xMidYMid meet" version="1.0"><defs><g/><clipPath id="7a72df6fa1"><path d="M 6.972656 5.929688 L 368.027344 5.929688 L 368.027344 366.984375 L 6.972656 366.984375 Z M 6.972656 5.929688 " clip-rule="nonzero"/></clipPath><clipPath id="f1751f0ee7"><path d="M 187.5 5.929688 C 87.796875 5.929688 6.972656 86.753906 6.972656 186.457031 C 6.972656 286.160156 87.796875 366.984375 187.5 366.984375 C 287.203125 366.984375 368.027344 286.160156 368.027344 186.457031 C 368.027344 86.753906 287.203125 5.929688 187.5 5.929688 Z M 187.5 5.929688 " clip-rule="nonzero"/></clipPath><clipPath id="a436d9e066"><path d="M 97 269 L 158 269 L 158 348 L 97 348 Z M 97 269 " clip-rule="nonzero"/></clipPath><clipPath id="cab9332679"><path d="M 152.476562 348.941406 L 92.566406 345.128906 L 97.40625 269.066406 L 157.320312 272.878906 Z M 152.476562 348.941406 " clip-rule="nonzero"/></clipPath><clipPath id="27ec6f7833"><path d="M 122.523438 347.035156 L 97.394531 269.234375 L 157.308594 273.046875 Z M 122.523438 347.035156 " clip-rule="nonzero"/></clipPath><clipPath id="deee1760d9"><path d="M 91.835938 55.722656 L 151.871094 55.722656 L 151.871094 131.9375 L 91.835938 131.9375 Z M 91.835938 55.722656 " clip-rule="nonzero"/></clipPath><clipPath id="365c64110b"><path d="M 121.851562 131.9375 L 91.835938 55.890625 L 151.871094 55.890625 Z M 121.851562 131.9375 " clip-rule="nonzero"/></clipPath></defs><g clip-path="url(#7a72df6fa1)"><g clip-path="url(#f1751f0ee7)"><path fill="#ffffff" d="M 6.972656 5.929688 L 368.027344 5.929688 L 368.027344 366.984375 L 6.972656 366.984375 Z M 6.972656 5.929688 " fill-opacity="1" fill-rule="nonzero"/></g></g><g fill="#000000" fill-opacity="1"><g transform="translate(110.186364, 320.784675)"><g><path d="M 152.421875 -68.59375 C 152.421875 -43.695312 146.578125 -25.40625 134.890625 -13.71875 C 123.210938 -2.03125 105.238281 3.8125 80.96875 3.8125 C 56.707031 3.8125 30.988281 2.539062 3.8125 0 L 3.8125 -51.4375 C 23.625 -50.164062 43.945312 -49.53125 64.78125 -49.53125 C 70.625 -49.53125 75.257812 -51.242188 78.6875 -54.671875 C 82.113281 -58.109375 83.828125 -62.75 83.828125 -68.59375 L 83.828125 -213.390625 L 34.296875 -213.390625 L 34.296875 -266.75 L 152.421875 -266.75 Z M 152.421875 -68.59375 "/></g></g></g><path stroke-linecap="butt" transform="matrix(0.728931, 0, 0, 0.728931, 113.442338, 55.892432)" fill="none" stroke-linejoin="miter" d="M -0.00127804 37.498951 L 178.669086 37.498951 " stroke="#000000" stroke-width="75" stroke-opacity="1" stroke-miterlimit="4"/><g clip-path="url(#a436d9e066)"><g clip-path="url(#cab9332679)"><g clip-path="url(#27ec6f7833)"><path fill="#000000" d="M 152.476562 348.941406 L 92.566406 345.128906 L 97.390625 269.300781 L 157.304688 273.113281 Z M 152.476562 348.941406 " fill-opacity="1" fill-rule="nonzero"/></g></g></g><g clip-path="url(#deee1760d9)"><g clip-path="url(#365c64110b)"><path fill="#000000" d="M 151.871094 131.9375 L 91.835938 131.9375 L 91.835938 55.957031 L 151.871094 55.957031 Z M 151.871094 131.9375 " fill-opacity="1" fill-rule="nonzero"/></g></g></svg>