<?xml version="1.0" standalone="no"?>
<!DOCTYPE svg PUBLIC "-//W3C//DTD SVG 20010904//EN"
 "http://www.w3.org/TR/2001/REC-SVG-20010904/DTD/svg10.dtd">
<svg version="1.0" xmlns="http://www.w3.org/2000/svg"
 width="500.000000pt" height="500.000000pt" viewBox="0 0 500.000000 500.000000"
 preserveAspectRatio="xMidYMid meet">

<g transform="translate(0.000000,500.000000) scale(0.100000,-0.100000)"
fill="#000000" stroke="none">
<path d="M2295 4910 c-552 -50 -1064 -282 -1455 -656 -373 -358 -615 -812
-712 -1334 -33 -179 -37 -548 -9 -741 55 -375 177 -695 384 -1004 96 -143 161
-221 306 -366 205 -204 383 -331 636 -454 170 -83 303 -132 473 -174 219 -55
314 -66 582 -66 268 0 363 11 582 66 170 42 303 91 473 174 634 308 1102 883
1276 1567 50 199 69 356 69 589 0 407 -76 734 -254 1087 -117 232 -254 420
-446 612 -369 371 -821 601 -1335 680 -148 23 -433 33 -570 20z m1205 -2013
c0 -888 -4 -1413 -10 -1467 -31 -255 -133 -463 -283 -576 -167 -126 -385 -183
-702 -184 -155 0 -529 15 -647 26 l-68 6 -66 -138 c-36 -77 -70 -150 -76 -164
-7 -20 -11 -22 -18 -10 -6 11 -290 884 -324 995 -6 20 -2 20 197 18 111 -1
347 -6 523 -11 322 -10 387 -7 443 22 38 20 88 81 103 126 9 26 13 285 16
1008 l3 972 -428 0 -428 0 -54 -140 c-30 -77 -55 -139 -57 -138 -6 7 -395
1000 -392 1004 2 1 160 6 351 10 191 4 347 11 347 16 0 4 353 8 785 8 l785 0
0 -1383z"/>
</g>
</svg>
